<svg width="100%" height="100%" id="svg" viewBox="0 0 1440 400" xmlns="http://www.w3.org/2000/svg" class="transition duration-300 ease-in-out delay-150"><path d="M 0,400 C 0,400 0,100 0,100 C 67.84278350515466,97.66071428571428 135.6855670103093,95.32142857142857 190,98 C 244.3144329896907,100.67857142857143 285.1005154639175,108.375 335,102 C 384.8994845360825,95.625 443.91237113402065,75.17857142857144 511,71 C 578.0876288659794,66.82142857142856 653.25,78.91071428571426 722,93 C 790.75,107.08928571428574 853.0876288659794,123.17857142857144 919,131 C 984.9123711340206,138.82142857142856 1054.3994845360826,138.375 1111,128 C 1167.6005154639174,117.62500000000001 1211.3144329896907,97.32142857142858 1264,91 C 1316.6855670103093,84.67857142857142 1378.3427835051548,92.33928571428571 1440,100 C 1440,100 1440,400 1440,400 Z" stroke="none" stroke-width="0" fill="#1f293766" class="transition-all duration-300 ease-in-out delay-150 path-0"></path><path d="M 0,400 C 0,400 0,200 0,200 C 50.799889543446255,184.20195139911635 101.59977908689251,168.40390279823268 156,172 C 210.4002209131075,175.59609720176732 268.40077319587624,198.58634020618555 328,202 C 387.59922680412376,205.41365979381445 448.79712812960236,189.25073637702502 519,194 C 589.2028718703976,198.74926362297498 668.4107142857143,224.4107142857143 729,228 C 789.5892857142857,231.5892857142857 831.5600147275404,213.10640648011784 881,201 C 930.4399852724596,188.89359351988216 987.3492268041239,183.16365979381442 1061,182 C 1134.6507731958761,180.83634020618558 1225.0430780559648,184.23895434462446 1291,188 C 1356.9569219440352,191.76104565537554 1398.4784609720177,195.88052282768777 1440,200 C 1440,200 1440,400 1440,400 Z" stroke="none" stroke-width="0" fill="#1f293788" class="transition-all duration-300 ease-in-out delay-150 path-1"></path><path d="M 0,400 C 0,400 0,300 0,300 C 80.17673048600884,288.96778350515467 160.35346097201767,277.9355670103093 212,280 C 263.6465390279823,282.0644329896907 286.7628865979382,297.22551546391753 339,307 C 391.2371134020618,316.77448453608247 472.5949926362298,321.1623711340206 534,322 C 595.4050073637702,322.8376288659794 636.8571428571428,320.12499999999994 702,326 C 767.1428571428572,331.87500000000006 855.9764359351989,346.3376288659794 922,331 C 988.0235640648011,315.6623711340206 1031.2371134020618,270.52448453608247 1079,265 C 1126.7628865979382,259.47551546391753 1179.0751104565536,293.5644329896907 1240,306 C 1300.9248895434464,318.4355670103093 1370.4624447717233,309.21778350515467 1440,300 C 1440,300 1440,400 1440,400 Z" stroke="none" stroke-width="0" fill="#1f2937ff" class="transition-all duration-300 ease-in-out delay-150 path-2"></path></svg>